<svg width="32" height="32" viewBox="0 0 32 32" fill="none" xmlns="http://www.w3.org/2000/svg">
  <!-- Background circle with gradient -->
  <circle cx="16" cy="16" r="16" fill="url(#gradient)"/>
  
  <!-- Leaf icon representing agriculture -->
  <path d="M8 20c0-6 4-10 8-10s8 4 8 10c0 2-1 4-3 5-1 1-3 1-5 1s-4 0-5-1c-2-1-3-3-3-5z" fill="white" opacity="0.9"/>
  
  <!-- Stem -->
  <path d="M16 20v6" stroke="white" stroke-width="2" stroke-linecap="round" opacity="0.8"/>
  
  <!-- IoT sensor dots -->
  <circle cx="12" cy="16" r="1.5" fill="#34D399"/>
  <circle cx="20" cy="16" r="1.5" fill="#34D399"/>
  <circle cx="16" cy="13" r="1.5" fill="#34D399"/>
  
  <!-- Connection lines between sensors -->
  <path d="M12 16h8M16 13v3" stroke="#34D399" stroke-width="1" opacity="0.6"/>
  
  <!-- Gradient definition -->
  <defs>
    <linearGradient id="gradient" x1="0%" y1="0%" x2="100%" y2="100%">
      <stop offset="0%" style="stop-color:#10B981;stop-opacity:1" />
      <stop offset="100%" style="stop-color:#059669;stop-opacity:1" />
    </linearGradient>
  </defs>
</svg>